<?xml version="1.0" encoding="utf-8"?>
<svg id="master-artboard" viewBox="0 0 1400 980" version="1.1" xmlns="http://www.w3.org/2000/svg" x="0px" y="0px" style="enable-background:new 0 0 1400 980;" width="1400px" height="980px" xmlns:xlink="http://www.w3.org/1999/xlink"><rect id="ee-background" x="0" y="0" width="1400" height="980" style="fill: white; fill-opacity: 0; pointer-events: none;"/><defs><linearGradient id="linear-gradient" x1="18.86" y1="1046.46" x2="34.2" y2="1055.71" gradientTransform="translate(-6.6 -1043.97)" gradientUnits="userSpaceOnUse"><stop offset="0" stop-color="#07e284"/><stop offset="0.67" stop-color="#08c0d1"/><stop offset="1" stop-color="#08b1f2"/></linearGradient><linearGradient id="linear-gradient-2" x1="14.22" y1="1062.45" x2="33.72" y2="1071.72" gradientTransform="translate(-6.6 -1043.97)" gradientUnits="userSpaceOnUse"><stop offset="0" stop-color="#f8ce60"/><stop offset="0.16" stop-color="#f9bb7e"/><stop offset="0.42" stop-color="#faa2a6"/><stop offset="0.65" stop-color="#fb8fc3"/><stop offset="0.85" stop-color="#fc84d5"/><stop offset="1" stop-color="#fc80db"/></linearGradient><linearGradient id="linear-gradient-3" x1="15.25" y1="1069.45" x2="20.55" y2="1049.67" gradientTransform="translate(-6.6 -1043.97)" gradientUnits="userSpaceOnUse"><stop offset="0" stop-color="#288adb"/><stop offset="0" stop-color="#3081d8"/><stop offset="0" stop-color="#4667d2" stop-opacity="0.99"/><stop offset="0.01" stop-color="#693ec6" stop-opacity="0.97"/><stop offset="0.01" stop-color="#9906b7" stop-opacity="0.95"/><stop offset="1" stop-color="#c80099" stop-opacity="0.5"/></linearGradient><linearGradient id="linear-gradient-4" x1="12.82" y1="1064.78" x2="29.2" y2="1068.4" gradientTransform="translate(-6.6 -1043.97)" gradientUnits="userSpaceOnUse"><stop offset="0" stop-color="#1bd5f9"/><stop offset="0.2" stop-color="#2bbff8"/><stop offset="0.62" stop-color="#5588f6"/><stop offset="0.98" stop-color="#7e53f4"/></linearGradient><linearGradient id="linear-gradient-5" x1="22.57" y1="1053.01" x2="41.01" y2="1047.41" gradientTransform="translate(-6.6 -1043.97)" gradientUnits="userSpaceOnUse"><stop offset="0" stop-color="#6fecb0"/><stop offset="0.65" stop-color="#29c4dd"/><stop offset="1" stop-color="#08b1f2"/></linearGradient><linearGradient id="linear-gradient-6" x1="11.01" y1="1049.94" x2="31.01" y2="1073.64" gradientTransform="translate(-6.6 -1043.97)" gradientUnits="userSpaceOnUse"><stop offset="0" stop-color="#288adb"/><stop offset="0" stop-color="#3081d8"/><stop offset="0" stop-color="#4667d1"/><stop offset="0.01" stop-color="#693ec6"/><stop offset="0.01" stop-color="#9906b7"/><stop offset="0.22" stop-color="#c80099" stop-opacity="0.2"/></linearGradient><linearGradient id="linear-gradient-7" x1="19.26" y1="1057.84" x2="19.31" y2="1080.76" gradientTransform="translate(-6.6 -1043.97)" gradientUnits="userSpaceOnUse"><stop offset="0" stop-color="#f8af40"/><stop offset="0.01" stop-color="#f8ad46"/><stop offset="0.12" stop-color="#f9a16e"/><stop offset="0.22" stop-color="#fa9790"/><stop offset="0.34" stop-color="#fb8fab"/><stop offset="0.46" stop-color="#fb88c0"/><stop offset="0.6" stop-color="#fc84cf"/><stop offset="0.76" stop-color="#fc81d8"/><stop offset="1" stop-color="#fc80db"/></linearGradient><linearGradient id="linear-gradient-8" x1="24.1" y1="1066.32" x2="36.56" y2="1067.47" xlink:href="#linear-gradient-4"/></defs><g transform="matrix(8.970333403596564, 0, 0, 8.970333403596564, -0.000011166345757374074, 284.04112212106395)"><path class="cls-1" d="M26.94,11.29a2.89,2.89,0,0,1-1.52,1,2.84,2.84,0,0,1-1.73,0,4.91,4.91,0,0,1-1.87-1.45,7.14,7.14,0,0,0-1.28-.89A12.56,12.56,0,0,0,9.71,5.36a13.87,13.87,0,0,1,1.41-.8,13.38,13.38,0,0,1,14,1.36,11.81,11.81,0,0,1,1.5,1.32l-.13-.13.42.44c.12.17.23.35.34.53A2.78,2.78,0,0,1,26.94,11.29Z" transform="translate(-3.74 -3.19)" style="fill: url('#linear-gradient');"/><path class="cls-2" d="M24.17,27.79a13.24,13.24,0,0,1-4.4,1.76l-.47.09-.42.06a11.22,11.22,0,0,1-1.83.09,13.24,13.24,0,0,1-9.86-4.37,12.28,12.28,0,0,1-.34-7,12.51,12.51,0,0,1,4.21-6.58,7.57,7.57,0,0,0-1.59,4.63,7.37,7.37,0,0,0,1.35,4.31h0a12.68,12.68,0,0,0,6.54,6.55A10.75,10.75,0,0,0,24.17,27.79Z" transform="translate(-3.74 -3.19)" style="fill: url('#linear-gradient-2');"/><path class="cls-3" d="M20.54,9.85l-.35-.18A7.64,7.64,0,0,0,17,9a7.51,7.51,0,0,0-5.95,2.91,12.51,12.51,0,0,0-4.21,6.58,12.28,12.28,0,0,0,.34,7A13.3,13.3,0,0,1,8.12,6.68,13.61,13.61,0,0,1,9.76,5.4,12.54,12.54,0,0,1,20.59,9.89Z" transform="translate(-3.74 -3.19)" style="fill: url('#linear-gradient-3');"/><path class="cls-4" d="M27.59,23.56a2.24,2.24,0,0,1-.06.52v.11a3.85,3.85,0,0,1-.85,1.48h0l-.41.41h.08l-.26.25a11.7,11.7,0,0,1-1.9,1.46,10.77,10.77,0,0,1-6.82-.37,12.68,12.68,0,0,1-6.54-6.55,7.6,7.6,0,0,0,4.24,3,7.09,7.09,0,0,0,1.95.24,7.57,7.57,0,0,0,3-.62,8.69,8.69,0,0,0,1.88-1.31,5.05,5.05,0,0,1,3.39-1.44A2.78,2.78,0,0,1,27.59,23.56Z" transform="translate(-3.74 -3.19)" style="fill: url('#linear-gradient-4');"/><path class="cls-5" d="M26.94,11.29a2.89,2.89,0,0,1-1.52,1h0a10.69,10.69,0,0,0-3.37-5.75,11.69,11.69,0,0,0-11-1.93A13.38,13.38,0,0,1,25.12,5.92a11.81,11.81,0,0,1,1.5,1.32l-.18-.13.42.44c.12.17.23.35.34.53A2.77,2.77,0,0,1,26.94,11.29Z" transform="translate(-3.74 -3.19)" style="fill: url('#linear-gradient-5');"/><path class="cls-6" d="M20.54,9.85l-.35-.18a7.7,7.7,0,0,0-4.54-.56L15,9a9.78,9.78,0,0,0-6.86,1.33C4,13.22,4.42,19.2,4.5,20.11a12.18,12.18,0,0,0,.24,1.49,13.1,13.1,0,0,1-1-5.1,13.29,13.29,0,0,1,6-11.12A12.54,12.54,0,0,1,20.57,9.87Z" transform="translate(-3.74 -3.19)" style="fill: url('#linear-gradient-6');"/><path class="cls-7" d="M18.88,29.66a11.27,11.27,0,0,1-1.83.13,13.24,13.24,0,0,1-9.86-4.37,12.28,12.28,0,0,1-.34-7,12.51,12.51,0,0,1,4.21-6.58,7.57,7.57,0,0,0-1.14,7.21,9,9,0,0,0,1,5.6C12.91,28,17.05,29,18.88,29.66Z" transform="translate(-3.74 -3.19)" style="fill: url('#linear-gradient-7');"/><path class="cls-8" d="M27.59,23.56a2.24,2.24,0,0,1-.06.52,15.29,15.29,0,0,1-5.61.82c-1.28,0-5.78.16-6.87-1.1a6.74,6.74,0,0,0,1.95.25,7.57,7.57,0,0,0,3-.62,8.39,8.39,0,0,0,1.88-1.32,5.05,5.05,0,0,1,3.39-1.44A2.8,2.8,0,0,1,27.59,23.56Z" transform="translate(-3.74 -3.19)" style="fill: url('#linear-gradient-8');"/><path class="cls-9" d="M42.89,21.56c0,4.87-1.59,6.66-6,6.66s-6-1.79-6-6.66,1.61-6.65,6-6.65S42.89,16.73,42.89,21.56Zm-9.6,0c0,3.7.89,4.79,3.64,4.79s3.67-1.09,3.67-4.79-.91-4.78-3.67-4.78S33.29,17.87,33.29,21.56Z" transform="translate(-3.74 -3.19)" style="fill: rgb(255, 255, 255); stroke: rgb(255, 255, 255);"/><path class="cls-9" d="M58.12,16.44l-1.87.16a4.54,4.54,0,0,1,.52,2.34c0,2.78-1.38,4-5.43,4a10.53,10.53,0,0,1-2.63-.26c-.57.83-.49,2,.89,2.18l4.73.76c2.39.36,3.2,1.45,3.2,3.56,0,3-1.51,3.93-6,3.93s-6.11-1-6.11-3.85c0-1.54.6-2.29,2.08-3.07a2.5,2.5,0,0,1-.33-3.53,2.59,2.59,0,0,1,.41-.4C46.41,21.61,46,20.52,46,18.94c0-2.87,1.35-4.06,5.43-4.06a11.28,11.28,0,0,1,2.89.31h4ZM53.18,27.29l-4.31-.6a2.79,2.79,0,0,0-1.33,2.42c0,1.8.83,2.16,3.93,2.16s3.9-.41,3.9-2.16C55.37,27.83,55,27.57,53.18,27.29Zm1.54-8.35c0-1.69-.83-2.34-3.38-2.34S48,17.25,48,18.94s.86,2.34,3.38,2.34S54.72,20.6,54.72,18.94Z" transform="translate(-3.74 -3.19)" style="fill: rgb(255, 255, 255);"/><path class="cls-9" d="M72,18.39v9.49H69.77V19c0-1.69-.52-2.24-1.82-2.24-1.51,0-2.86.75-4.89,2V27.9H60.85V15.22h1.88l.15,2a9.57,9.57,0,0,1,5.67-2.31C70.79,14.91,72,16.11,72,18.39Z" transform="translate(-3.74 -3.19)" style="fill: rgb(255, 255, 255);"/><path class="cls-9" d="M78.35,10.51V12a.58.58,0,0,1-.47.67.34.34,0,0,1-.2,0h-1a.58.58,0,0,1-.68-.48A.6.6,0,0,1,76,12V10.51a.61.61,0,0,1,.54-.67h1.14a.61.61,0,0,1,.67.52A.38.38,0,0,1,78.35,10.51Zm-.1,17.37H76.06V15.22h2.19Z" transform="translate(-3.74 -3.19)" style="fill: rgb(255, 255, 255);"/><path class="cls-9" d="M95,12H89.12V27.88H86.88V12H81.12V10H95Z" transform="translate(-3.74 -3.19)" style="fill: rgb(255, 255, 255);"/><path class="cls-9" d="M104.84,26l.24,1.48a15.47,15.47,0,0,1-4.92.71c-4.37,0-6.06-1.82-6.06-6.69s1.75-6.6,5.83-6.6c3.82,0,5.43,1.4,5.43,4.13,0,2.27-.91,3.59-3,3.59H96.47c.21,3,1.38,3.69,4,3.69A33.67,33.67,0,0,0,104.84,26Zm-8.42-5.1h5.35c1.15,0,1.38-.93,1.38-1.87,0-1.61-.86-2.26-3.12-2.26C97.41,16.78,96.5,17.72,96.42,20.91Z" transform="translate(-3.74 -3.19)" style="fill: rgb(255, 255, 255);"/><path class="cls-9" d="M119.82,18.39v9.49h-2.21V19c0-1.69-.52-2.24-1.82-2.24-1.51,0-2.86.75-4.89,2V27.9h-2.21V15.22h1.87l.16,2a9.42,9.42,0,0,1,5.67-2.31C118.62,14.91,119.82,16.11,119.82,18.39Z" transform="translate(-3.74 -3.19)" style="fill: rgb(255, 255, 255);"/><path class="cls-9" d="M133.34,15.3l-.22,1.61c-1.59-.05-3.23-.13-4.82-.13-2.33,0-3.12,0-3.12,1.61,0,1.33.63,1.54,1.85,1.82l3.69.84c2,.49,2.94,1.32,2.94,3.48,0,3.12-1.74,3.64-5.41,3.64a32.17,32.17,0,0,1-5-.36l.15-1.62c1.25.08,2.73.13,4.37.11,2.84,0,3.72-.26,3.72-1.77,0-1.25-.78-1.48-2-1.77l-3.64-.83c-2.06-.5-2.86-1.46-2.86-3.54,0-2.94,1.48-3.53,4.94-3.48A44.44,44.44,0,0,1,133.34,15.3Z" transform="translate(-3.74 -3.19)" style="fill: rgb(255, 255, 255);"/><path class="cls-9" d="M148.31,21.56c0,4.87-1.58,6.66-5.95,6.66s-6-1.79-6-6.66,1.61-6.65,6-6.65S148.31,16.73,148.31,21.56Zm-9.59,0c0,3.7.88,4.79,3.64,4.79S146,25.26,146,21.56s-.91-4.78-3.67-4.78S138.72,17.87,138.72,21.56Z" transform="translate(-3.74 -3.19)" style="fill: rgb(255, 255, 255);"/><path class="cls-9" d="M159.81,14.91,159.55,17h-.73c-1.43,0-2.73.6-4.73,1.61v9.28h-2.21V15.22h1.71l.24,2a9.15,9.15,0,0,1,5.41-2.31Z" transform="translate(-3.74 -3.19)" style="fill: rgb(255, 255, 255);"/><path class="cls-9" d="M71.92,41.09v5h-.73l-.11-1.23A4.68,4.68,0,0,1,68,46.23a1.78,1.78,0,0,1-2-1.89v-.81a1.62,1.62,0,0,1,1.84-1.71H71v-.73c0-.88-.33-1.36-1.49-1.36-.84,0-2,.09-3.1.2l-.09-.68a23.54,23.54,0,0,1,3.37-.32C71.11,38.93,71.92,39.48,71.92,41.09ZM71,44.25V42.53l-3,0a1,1,0,0,0-1.06,1.08v.61c0,.8.41,1.17,1.23,1.17A4.6,4.6,0,0,0,71,44.25Z" transform="translate(-3.74 -3.19)" style="fill: rgb(255, 255, 255);"/><path class="cls-9" d="M80.24,40.86v5.26h-.91v-5c0-1-.37-1.37-1.22-1.37a5.48,5.48,0,0,0-2.92,1.21l0,5.18h-.93v-7h.77l.06,1.16a5.42,5.42,0,0,1,3.25-1.35A1.71,1.71,0,0,1,80.24,40.86Z" transform="translate(-3.74 -3.19)" style="fill: rgb(255, 255, 255);"/><path class="cls-9" d="M90.94,42.82H86.59l-1.1,3.3h-1l3.34-9.7a.38.38,0,0,1,.37-.28h1.09a.39.39,0,0,1,.37.28L93,46.12H92ZM90.66,42l-1.43-4.29c-.08-.28-.18-.55-.26-.81h-.4c-.09.26-.17.53-.28.81L86.86,42Z" transform="translate(-3.74 -3.19)" style="fill: rgb(255, 255, 255);"/><path class="cls-9" d="M95.49,46.12h-.94v-10h.94Z" transform="translate(-3.74 -3.19)" style="fill: rgb(255, 255, 255);"/><path class="cls-9" d="M106.39,39.25l-.14.59a15.68,15.68,0,0,0-1.87-.11c-1.82,0-2.47.65-2.47,2.89s.65,2.87,2.47,2.87a12.67,12.67,0,0,0,2-.16l.1.64a8.48,8.48,0,0,1-2.28.32c-2.4,0-3.28-1-3.28-3.67s.88-3.69,3.28-3.69A7,7,0,0,1,106.39,39.25Z" transform="translate(-3.74 -3.19)" style="fill: rgb(255, 255, 255);"/><path class="cls-9" d="M114.26,42.62c0,2.69-.85,3.67-3.2,3.67s-3.23-1-3.23-3.67.87-3.69,3.23-3.69S114.26,39.93,114.26,42.62Zm-5.46,0c0,2.21.57,2.89,2.26,2.89s2.25-.68,2.25-2.89-.56-2.89-2.25-2.89S108.8,40.41,108.8,42.62Z" transform="translate(-3.74 -3.19)" style="fill: rgb(255, 255, 255);"/><path class="cls-9" d="M126.64,40.86v5.26h-.91v-5c0-1-.39-1.37-1.24-1.37s-1.43.39-2.56,1.23v5.16h-.88v-5c0-1-.42-1.37-1.24-1.37a4.28,4.28,0,0,0-2.56,1.21v5.18h-.91v-7h.75l.06,1.17a4.51,4.51,0,0,1,2.95-1.36,1.62,1.62,0,0,1,1.78,1.33,4.44,4.44,0,0,1,2.91-1.33A1.7,1.7,0,0,1,126.64,40.86Z" transform="translate(-3.74 -3.19)" style="fill: rgb(255, 255, 255);"/><path class="cls-9" d="M135.19,42.65c0,2.67-.79,3.64-2.6,3.64a5.49,5.49,0,0,1-2.7-.74,12.79,12.79,0,0,1,0,1.39v2.12H129V39.12h.75l.09,1.16a4.24,4.24,0,0,1,2.89-1.35C134.5,38.93,135.19,40.13,135.19,42.65Zm-.94,0c0-2.14-.5-2.89-1.77-2.89A4.08,4.08,0,0,0,129.92,41v4a7.6,7.6,0,0,0,2.47.52C133.73,45.48,134.25,44.83,134.25,42.63Z" transform="translate(-3.74 -3.19)" style="fill: rgb(255, 255, 255);"/><path class="cls-9" d="M142.79,41v4.87h-.72L142,44.7a4.71,4.71,0,0,1-3.06,1.3,1.76,1.76,0,0,1-2-1.83v-.79c0-1.05.67-1.65,1.84-1.65h3.14V41c0-.86-.34-1.32-1.49-1.32-.84,0-2,.09-3.11.2l-.09-.66a23.91,23.91,0,0,1,3.37-.31C142,38.93,142.79,39.47,142.79,41Zm-.92,3.06V42.42l-3,0a.94.94,0,0,0-1.05,1v.58c0,.77.4,1.14,1.23,1.14A4.73,4.73,0,0,0,141.87,44.08Z" transform="translate(-3.74 -3.19)" style="fill: rgb(255, 255, 255);"/><path class="cls-9" d="M151.11,40.86v5.26h-.91v-5c0-1-.36-1.37-1.21-1.37a5.48,5.48,0,0,0-2.92,1.21v5.18h-.92v-7h.76l.06,1.16a5.42,5.42,0,0,1,3.25-1.35A1.7,1.7,0,0,1,151.11,40.86Z" transform="translate(-3.74 -3.19)" style="fill: rgb(255, 255, 255);"/><path class="cls-9" d="M159.47,39.12l-2.94,7.49a3.38,3.38,0,0,1-2.78,2.5l-.11-.6a3.07,3.07,0,0,0,2-2l.18-.39h-.23a.37.37,0,0,1-.37-.25l-2.65-6.75h1l2.06,5.46a6,6,0,0,1,.29.81h.21c.1-.27.21-.56.3-.82l2.05-5.45Z" transform="translate(-3.74 -3.19)" style="fill: rgb(255, 255, 255);"/><path d="M 55.259998 29.809999 L 155.259995 29.809999" class="cls-10" style="fill: none; stroke: rgb(255, 255, 255); stroke-miterlimit: 10; stroke-width: 0.4px;"/><path d="M 60.75341033935547 30.32084846496582 L 60.75341033935547 30.32084846496582" style="fill: rgb(255, 255, 255); fill-opacity: 1; stroke: rgb(0, 0, 0); stroke-opacity: 1; stroke-width: 0; paint-order: fill;"/></g></svg>